<?xml version="1.0" encoding="utf-8"?>
<!-- Generator: Adobe Illustrator 16.0.4, SVG Export Plug-In . SVG Version: 6.00 Build 0)  -->
<!DOCTYPE svg PUBLIC "-//W3C//DTD SVG 1.1//EN" "http://www.w3.org/Graphics/SVG/1.1/DTD/svg11.dtd">
<svg version="1.1" id="Camada_1" xmlns="http://www.w3.org/2000/svg" xmlns:xlink="http://www.w3.org/1999/xlink" x="0px" y="0px"
	 width="20px" height="15px" viewBox="0 0 20 15" enable-background="new 0 0 20 15" xml:space="preserve">
<g>
	<g>
		<path fill-rule="evenodd" clip-rule="evenodd" fill="#333333" d="M1.5,2.8h17C19.328,2.8,20,2.173,20,1.4
			C20,0.627,19.328,0,18.5,0h-17C0.672,0,0,0.627,0,1.4C0,2.173,0.672,2.8,1.5,2.8z M18.5,10.2h-17C0.672,10.2,0,10.827,0,11.6
			C0,12.373,0.672,13,1.5,13h17c0.828,0,1.5-0.627,1.5-1.4C20,10.827,19.328,10.2,18.5,10.2z M18.5,5h-17C0.672,5,0,5.627,0,6.4
			C0,7.173,0.672,7.8,1.5,7.8h17C19.328,7.8,20,7.173,20,6.4C20,5.627,19.328,5,18.5,5z"/>
	</g>
</g>
</svg>
