<?xml version="1.0" standalone="no"?>
<!DOCTYPE svg PUBLIC "-//W3C//DTD SVG 1.1//EN" "http://www.w3.org/Graphics/SVG/1.1/DTD/svg11.dtd" >
<svg xmlns="http://www.w3.org/2000/svg" xmlns:xlink="http://www.w3.org/1999/xlink" version="1.1">
<metadata></metadata>
<defs>
<font id="avantgardegothicitct-boldRg" horiz-adv-x="1126" >
<font-face units-per-em="2048" ascent="1638" descent="-410" />
<missing-glyph horiz-adv-x="512" />
<glyph horiz-adv-x="0" />
<glyph unicode="&#xd;" horiz-adv-x="1024" />
<glyph unicode=" "  horiz-adv-x="512" />
<glyph unicode="&#x09;" horiz-adv-x="512" />
<glyph unicode="&#xa0;" horiz-adv-x="512" />
<glyph unicode="!" horiz-adv-x="604" d="M143 0h318v313h-318v-313zM143 451h318v915h-318v-915z" />
<glyph unicode="&#x22;" horiz-adv-x="536" d="M53 1366l19 -438h139l18 438h-176zM305 1366l21 -438h137l18 438h-176z" />
<glyph unicode="#" d="M68 428h182l-41 -301h190l41 301h176l-43 -301h191l43 301h176l27 193h-176l22 159h176l27 193h-176l43 301h-191l-43 -301h-174l41 301h-188l-43 -301h-185l-26 -193h184l-22 -159h-185zM467 621l25 159h174l-23 -159h-176z" />
<glyph unicode="$" d="M135 395q0 -53 22.5 -114.5t59.5 -108.5q39 -51 91 -80t134 -45v-186h248v194q135 45 213 144.5t78 228.5q0 121 -71.5 214t-200.5 142q-82 33 -103.5 41.5t-44.5 20.5q-53 27 -76.5 57.5t-23.5 71.5q0 45 28.5 73.5t71.5 28.5q92 0 101 -116h286v18q0 74 -23.5 131 t-74.5 113q-33 35 -69 54t-91 34v186h-248v-186q-141 -39 -218 -136.5t-77 -236.5q0 -129 71 -217t218 -143l6 -3q47 -18 71 -27t40 -15.5t26.5 -13.5t24.5 -17q33 -25 47.5 -49.5t14.5 -59.5q0 -45 -31 -77.5t-74 -32.5q-96 0 -108 131h-318v-19z" />
<glyph unicode="%" horiz-adv-x="1638" d="M61 1065q0 -145 94.5 -239.5t237.5 -94.5q145 0 241.5 94.5t96.5 237.5q0 141 -95.5 235.5t-240.5 94.5q-141 0 -237.5 -94.5t-96.5 -233.5zM274 1063q0 51 36 88t87 37t86 -36t35 -89t-34.5 -90t-86.5 -37q-51 0 -87 37t-36 90zM424 0h217l573 1366h-217zM907 307 q0 -145 94.5 -239.5t237.5 -94.5q145 0 241.5 94.5t96.5 237.5q0 141 -95.5 235.5t-240.5 94.5q-141 0 -237.5 -94.5t-96.5 -233.5zM1120 305q0 51 36 88t87 37t86 -36t35 -89t-35 -90t-86 -37t-87 37t-36 90z" />
<glyph unicode="&#x26;" horiz-adv-x="1351" d="M61 371q0 -82 35 -155t97.5 -127t146.5 -85t178 -31q115 0 213 40t195 126l161 -166l209 205l-186 191q31 41 53.5 80.5t48.5 101.5l105 254h-322l-100 -223l-162 161q100 70 145.5 144t45.5 170q0 143 -103.5 239.5t-257.5 96.5q-78 0 -147.5 -27t-121.5 -75t-81 -112.5 t-29 -138.5q0 -166 129 -295q-137 -94 -194.5 -179t-57.5 -195zM397 401q0 41 22.5 77t82.5 83l219 -221q-37 -39 -76 -56.5t-90 -17.5q-70 0 -114 39t-44 96zM481 1057q0 39 24.5 64.5t61.5 25.5q35 0 57.5 -24.5t22.5 -63.5t-18.5 -72t-69.5 -80q-43 47 -60.5 80t-17.5 70 z" />
<glyph unicode="'" horiz-adv-x="284" d="M53 1366l19 -438h139l18 438h-176z" />
<glyph unicode="(" horiz-adv-x="761" d="M61 512q0 -231 100.5 -436t280.5 -342q57 -45 120 -79t145 -65v306q-59 33 -102.5 74.5t-88.5 109.5q-70 100 -101.5 204.5t-31.5 225.5q0 111 25.5 206t80.5 187q47 82 100.5 136.5t117.5 88.5v306q-82 -31 -144.5 -65t-120.5 -79q-180 -137 -280.5 -342t-100.5 -436z " />
<glyph unicode=")" horiz-adv-x="761" d="M55 -104v-306q82 31 144.5 65t119.5 79q180 139 280.5 344t100.5 434q0 231 -100 436t-281 342q-57 45 -119.5 79t-144.5 65v-306q59 -33 102.5 -74.5t88.5 -109.5q70 -100 101.5 -204.5t31.5 -225.5q0 -109 -25.5 -204t-81.5 -187q-47 -82 -99 -137.5t-118 -89.5z" />
<glyph unicode="*" horiz-adv-x="991" d="M88 995l244 -75l-162 -203l172 -129l147 213l152 -213l170 129l-154 203l244 75l-72 203l-235 -90l10 258h-219l6 -258l-235 90z" />
<glyph unicode="+" d="M86 567h363v-362h231v362h362v232h-362v362h-231v-362h-363v-232z" />
<glyph unicode="," horiz-adv-x="536" d="M109 0h143v-63q0 -31 -22.5 -50.5t-57.5 -19.5h-63v-164h131q84 0 136 61.5t52 161.5v387h-319v-313z" />
<glyph unicode="-" horiz-adv-x="518" d="M0 395h518v260h-518v-260z" />
<glyph unicode="." horiz-adv-x="536" d="M109 0h317v313h-317v-313z" />
<glyph unicode="/" horiz-adv-x="864" d="M-39 -342h301l533 1708h-299z" />
<glyph unicode="0" d="M53 485q0 -78 22.5 -156.5t63.5 -133.5q72 -100 189.5 -161t238.5 -61q111 0 216.5 49.5t177.5 135.5q111 129 110 327v396q0 78 -18.5 150.5t-53.5 125.5q-68 104 -188.5 170t-245.5 66q-100 0 -203.5 -45t-177.5 -121q-131 -133 -131 -346v-396zM401 483v400 q0 61 12.5 96t41.5 63q47 43 108 43q70 0 115 -49q27 -27 36 -59.5t9 -93.5v-400q0 -61 -9 -94t-36 -59q-45 -49 -115 -49q-61 0 -108 43q-29 29 -41.5 63.5t-12.5 95.5z" />
<glyph unicode="1" d="M213 1073h223v-1073h348v1366h-571v-293z" />
<glyph unicode="2" d="M72 868h331q6 113 44 165t114 52q57 0 93 -36.5t36 -96.5q0 -80 -67.5 -190.5t-188.5 -226.5q-41 -39 -67.5 -64t-62.5 -51.5t-84 -59t-136 -90.5v-270h963v293h-463q100 88 149 135t94 98q211 236 211 467q0 84 -34.5 158t-98 128t-147.5 84t-183 30 q-137 0 -248.5 -55.5t-174.5 -155.5q-43 -68 -59.5 -134.5t-20.5 -179.5z" />
<glyph unicode="3" horiz-adv-x="1120" d="M47 406q6 -74 20.5 -124.5t41.5 -95.5q57 -98 175.5 -155.5t264.5 -57.5q102 0 194.5 33t163 93.5t109.5 138t39 165.5q0 244 -258 328q182 98 182 289q0 80 -32 147.5t-91 118.5t-137 79t-168 28q-207 0 -336 -117t-133 -307h344q6 117 109 116q45 0 70.5 -32.5 t25.5 -85.5q0 -158 -174 -158h-58v-256h123q184 0 185 -137q0 -59 -42 -97t-110 -38q-125 0 -156 125h-352z" />
<glyph unicode="4" d="M20 240h603v-240h333v240h150v272h-150v854h-323l-613 -872v-254zM371 512l272 430v-430h-272z" />
<glyph unicode="5" d="M35 367q31 -176 174 -285t346 -109q229 0 375 144q70 70 109.5 164t39.5 188q0 84 -29.5 165t-82.5 142q-129 152 -342 152q-59 0 -101.5 -9.5t-85.5 -31.5l31 186h487v293h-755l-117 -772l281 -70q53 117 178 117q82 0 135 -50t53 -128q0 -74 -54 -128t-130 -54 q-96 0 -162 86h-350z" />
<glyph unicode="6" d="M27 498q0 -158 98 -303q76 -106 189.5 -164t250.5 -58q113 0 211 39t170 110t112 166t40 206q0 96 -32 182t-88 149.5t-132 98t-164 34.5q-18 0 -35.5 -2t-48.5 -6l299 416h-403l-338 -498q-61 -88 -95 -187t-34 -183zM371 471q0 76 54 128t132 52q82 0 137.5 -54 t55.5 -132t-55.5 -131t-135.5 -53t-134 54t-54 136z" />
<glyph unicode="7" d="M125 1073h530l-503 -1073h383l481 1098v268h-891v-293z" />
<glyph unicode="8" d="M66 414q0 -90 38.5 -170t108.5 -141.5t161 -95.5t191 -34q102 0 192.5 34t159 95.5t106.5 141.5t38 170q0 117 -56.5 206t-158.5 132q70 57 101.5 118.5t31.5 141.5t-30.5 150.5t-87 121.5t-133.5 80t-165 29t-164.5 -29t-133 -81t-88.5 -122.5t-32 -152.5 q0 -78 31 -137.5t103 -118.5q-100 -43 -156.5 -132.5t-56.5 -205.5zM414 440q0 66 43 110t106 44t106.5 -46t43.5 -112q0 -63 -43 -109t-103 -46q-68 0 -110.5 45t-42.5 114zM436 983q0 53 38 90t91 37q51 0 87 -36t36 -85q0 -53 -37 -91t-90 -38t-89 35t-36 88z" />
<glyph unicode="9" d="M29 887q0 -125 59 -238.5t154 -173.5q98 -63 233 -63q27 0 44.5 2t45.5 10l-307 -424h397l349 541q53 80 74.5 151.5t21.5 165.5q0 117 -40 215t-113 171t-172 112t-216 39q-113 0 -210 -38t-168.5 -107.5t-111.5 -163t-40 -199.5zM377 905q0 74 55 128t131 54 q78 0 133.5 -53t55.5 -129q0 -80 -54.5 -133t-134.5 -53q-76 0 -131 55t-55 131z" />
<glyph unicode=":" horiz-adv-x="536" d="M109 0h317v313h-317v-313zM109 711h317v313h-317v-313z" />
<glyph unicode=";" horiz-adv-x="536" d="M109 0h143v-63q0 -31 -22.5 -50.5t-57.5 -19.5h-63v-164h131q84 0 136 61.5t52 161.5v387h-319v-313zM109 711h317v313h-317v-313z" />
<glyph unicode="&#x3c;" horiz-adv-x="1024" d="M68 551v280l886 476v-334l-532 -283l532 -282v-332z" />
<glyph unicode="=" d="M86 403h956v220h-956v-220zM86 743h956v220h-956v-220z" />
<glyph unicode="&#x3e;" horiz-adv-x="1024" d="M68 76v334l532 282l-532 283v332l886 -476v-280z" />
<glyph unicode="?" horiz-adv-x="1015" d="M27 899h340q2 96 30.5 137t94.5 41q106 0 106 -114q0 -45 -27.5 -91.5t-97.5 -113.5q-102 -96 -145 -170t-43 -154h317q4 47 34 88t109 117q72 68 100.5 99.5t53.5 72.5q53 88 53 190q0 82 -33.5 153t-93 125t-140.5 84t-173 30q-104 0 -193.5 -34t-155 -96.5 t-101 -146.5t-35.5 -182v-35zM285 0h317v313h-317v-313z" />
<glyph unicode="@" horiz-adv-x="1536" d="M82 672q0 -145 57.5 -281.5t157.5 -232.5q197 -186 516 -187q231 0 428 70l-43 168q-182 -70 -387 -70q-133 0 -229.5 35t-167.5 111q-72 74 -112 175t-40 210q0 115 42 217t117 178t176 118t216 42q104 0 192.5 -32t152 -91.5t98 -140t34.5 -177.5q0 -57 -15 -115.5 t-40 -105.5t-54.5 -74.5t-60.5 -27.5q-43 0 -43 61q0 14 10 74q0 6 3 14l79 404h-184l-14 -72q-51 53 -93 72.5t-108 19.5q-72 0 -137.5 -32.5t-116.5 -90t-79.5 -133.5t-28.5 -157q0 -141 83.5 -235.5t210.5 -94.5q72 0 140.5 32.5t109.5 88.5q12 -45 59.5 -75t100.5 -30 q66 0 128.5 39t110.5 106.5t75.5 154.5t27.5 179q0 129 -48 241t-136 194t-208 127t-257 45q-150 0 -282 -55.5t-231 -155t-154.5 -230.5t-55.5 -280zM614 629q0 86 54.5 150.5t126.5 64.5q57 0 92 -40t35 -106q0 -88 -52.5 -153.5t-121.5 -65.5q-59 0 -96.5 41t-37.5 109z " />
<glyph unicode="A" horiz-adv-x="1351" d="M-6 0h375l71 199h475l68 -199h377l-543 1366h-276zM537 475l143 467l143 -467h-286z" />
<glyph unicode="B" horiz-adv-x="1181" d="M117 0h432q96 0 163.5 5t118 18.5t89 37t75.5 58.5q61 55 94 132t33 163q0 242 -225 317q158 92 158 277q0 84 -35 160.5t-94 121.5q-55 43 -138 59.5t-251 16.5h-420v-1366zM451 307v248h163q53 0 79 -5t48 -20q47 -33 47 -94q0 -129 -174 -129h-163zM451 846v213h122 q45 0 64.5 -3t36.5 -14q47 -27 47 -88q0 -108 -145 -108h-3h-122z" />
<glyph unicode="C" horiz-adv-x="1507" d="M59 684q0 -145 55.5 -275t155 -228.5t230.5 -153t280 -54.5q125 0 236.5 38t204 110t156 171t91.5 218h-364q-111 -229 -330 -229q-76 0 -143.5 30.5t-117.5 86t-77.5 130t-27.5 158.5t27.5 158t76.5 128t116.5 83.5t143.5 29.5q113 0 202 -64.5t130 -174.5h364 q-25 141 -131 278q-100 131 -245.5 200t-317.5 69q-147 0 -278 -54.5t-229.5 -151.5t-153 -226.5t-54.5 -276.5z" />
<glyph unicode="D" horiz-adv-x="1355" d="M117 0h538q143 0 262 49t204 140.5t131 218.5t46 280q0 297 -174 483q-100 106 -222 150.5t-324 44.5h-461v-1366zM465 307v752h151q160 0 247 -99.5t87 -281.5q0 -102 -33.5 -186t-93.5 -127q-35 -27 -89 -42.5t-120 -15.5h-149z" />
<glyph unicode="E" horiz-adv-x="960" d="M117 0h760v307h-426v234h411v307h-411v211h426v307h-760v-1366z" />
<glyph unicode="F" horiz-adv-x="909" d="M117 0h334v520h397v307h-397v232h411v307h-745v-1366z" />
<glyph unicode="G" horiz-adv-x="1570" d="M59 688q0 -147 55.5 -277t156 -229.5t232.5 -154t281 -54.5q154 0 287 55.5t232.5 156t154.5 233.5t55 287q0 14 -4 59v12h-809v-278h406q-25 -102 -105.5 -159.5t-195.5 -57.5q-84 0 -162 31.5t-127 82.5q-51 53 -79.5 135t-28.5 175q0 84 25.5 147t78.5 119 q112 114 265 114h3q98 0 175 -46t124 -132h391q-29 104 -94 193.5t-157.5 155t-203 101.5t-224.5 36q-139 0 -276.5 -51.5t-233.5 -139.5q-102 -94 -162 -231t-60 -283z" />
<glyph unicode="H" horiz-adv-x="1374" d="M117 0h348v547h446v-547h349v1366h-349v-512h-446v512h-348v-1366z" />
<glyph unicode="I" horiz-adv-x="579" d="M117 0h348v1366h-348v-1366z" />
<glyph unicode="J" horiz-adv-x="1032" d="M0 438q0 -82 13.5 -142t43.5 -112q57 -96 165 -153.5t237 -57.5q115 0 220 48.5t167 130.5q47 63 65.5 146t18.5 241v827h-348v-913q0 -59 -6.5 -87t-22.5 -51q-28 -34 -73 -34h-3q-53 0 -78.5 37.5t-29.5 119.5h-369z" />
<glyph unicode="K" horiz-adv-x="1234" d="M117 0h348v590l377 -590h407l-481 684l453 682h-367l-389 -614v614h-348v-1366z" />
<glyph unicode="L" horiz-adv-x="894" d="M117 0h751v307h-403v1059h-348v-1366z" />
<glyph unicode="M" horiz-adv-x="1673" d="M117 0h321l-12 1028l297 -1028h229l295 1028l-12 -1028h321v1366h-448l-270 -899l-273 899h-448v-1366z" />
<glyph unicode="N" horiz-adv-x="1384" d="M117 0h334l-13 831l529 -831h303v1366h-334l12 -860l-530 860h-301v-1366z" />
<glyph unicode="O" horiz-adv-x="1558" d="M59 692q0 -152 54.5 -284t151.5 -229t230.5 -151.5t284.5 -54.5q150 0 282 54.5t230.5 151.5t153.5 227.5t55 277.5t-55 276.5t-153.5 226.5t-231.5 151.5t-283 54.5q-147 0 -279 -53.5t-230.5 -149.5t-154 -225t-55.5 -273zM408 690q0 82 28.5 155t78.5 127t118.5 83.5 t146.5 29.5t146.5 -30.5t120 -86t79 -130t27.5 -158.5q0 -82 -27.5 -154.5t-79 -128t-118 -86t-142.5 -30.5q-80 0 -149.5 30.5t-121.5 86t-79.5 130t-27.5 162.5z" />
<glyph unicode="P" horiz-adv-x="1183" d="M117 0h334v428h149q145 0 238.5 27.5t160.5 91.5q68 66 106 159t38 197q0 109 -42 205t-118 158q-70 55 -163 77.5t-257 22.5h-446v-1366zM451 737v322h127q121 0 167 -33q29 -18 46.5 -53t17.5 -76q0 -74 -53 -121q-27 -20 -64 -29.5t-100 -9.5h-141z" />
<glyph unicode="Q" horiz-adv-x="1566" d="M59 676q0 -270 189 -471q213 -231 547 -232q197 0 370 107q47 -51 131 -80t189 -29h44t44 4v277q-12 -2 -29 -2q-100 0 -149 49q59 92 86.5 182t27.5 195q0 150 -55 280.5t-156.5 229t-235.5 153t-286 54.5q-147 0 -278 -54.5t-230.5 -154t-154 -230.5t-54.5 -278z M410 741q29 160 127 252t241 92q168 0 275.5 -109.5t107.5 -279.5q0 -53 -9 -92.5t-36 -109.5q-119 143 -249 217.5t-263 74.5q-49 0 -90 -9t-104 -36zM446 510q37 14 61.5 18t59.5 4h2q200 0 349 -200q-41 -29 -73 -40t-73 -11q-102 0 -193.5 64.5t-132.5 164.5z" />
<glyph unicode="R" horiz-adv-x="1200" d="M117 0h334v442l317 -442h399l-370 465q66 10 106.5 28.5t83.5 57.5q72 61 111 150.5t39 193.5q0 111 -45 210t-123 163q-70 57 -159 77.5t-261 20.5h-432v-1366zM451 680v379h127q59 0 94 -9.5t63 -33.5q68 -51 68 -142q0 -92 -60.5 -143t-169.5 -51h-122z" />
<glyph unicode="S" horiz-adv-x="1056" d="M29 412q0 -205 133 -322t362 -117q223 0 350 112t127 308q0 133 -73.5 224.5t-243.5 168.5q-41 18 -74 33q-117 53 -123 58q-88 49 -88 118q0 45 35 76t86 31q109 0 125 -133h346q-6 96 -26.5 155.5t-65.5 112.5q-61 74 -159.5 116t-209.5 42q-98 0 -186 -31t-153.5 -86 t-102.5 -129t-37 -158q0 -82 37 -157.5t100 -126.5q29 -23 52.5 -38.5t56.5 -31.5t83 -37.5t130 -52.5q145 -59 145 -152q0 -53 -38.5 -91t-96.5 -38q-63 0 -102 50.5t-39 134.5h-350v-39z" />
<glyph unicode="T" horiz-adv-x="915" d="M14 1059h271v-1059h348v1059h270v307h-889v-307z" />
<glyph unicode="U" horiz-adv-x="1253" d="M102 539q0 -160 31 -251t107 -169q150 -145 389 -146q240 0 387 148q74 78 104.5 172t30.5 246v827h-348v-827q0 -88 -9.5 -131t-33.5 -74q-47 -53 -131 -53q-94 0 -136 61t-42 197v827h-349v-827z" />
<glyph unicode="V" horiz-adv-x="1232" d="M-20 1366l456 -1366h359l458 1366h-360l-277 -958l-276 958h-360z" />
<glyph unicode="W" horiz-adv-x="1777" d="M14 1366l353 -1366h315l207 885l205 -885h307l362 1366h-352l-188 -891l-201 891h-266l-203 -889l-184 889h-355z" />
<glyph unicode="X" horiz-adv-x="1318" d="M-20 0h389l280 483l295 -483h395l-473 721l418 645h-393l-227 -391l-234 391h-395l422 -639z" />
<glyph unicode="Y" horiz-adv-x="1120" d="M-20 1366l407 -868v-498h348v498l406 868h-375l-205 -549l-203 549h-378z" />
<glyph unicode="Z" horiz-adv-x="935" d="M35 0h862v307h-436l436 776v283h-862v-307h471l-471 -830v-229z" />
<glyph unicode="[" horiz-adv-x="761" d="M123 172q0 -170 48 -280.5t157 -190.5q35 -27 63.5 -42t62 -27.5t73.5 -21.5t112 -20v301q-109 4 -156 61.5t-47 184.5v750q0 127 47 184t156 62v301l-33 -7q-127 -23 -193.5 -52t-136.5 -95q-84 -80 -118.5 -178t-34.5 -250v-680z" />
<glyph unicode="\" horiz-adv-x="864" d="M68 1366l534 -1708h299l-532 1708h-301z" />
<glyph unicode="]" horiz-adv-x="761" d="M123 -109v-301l33 7q127 20 192.5 50.5t134.5 96.5q84 80 119 178t35 250v680q0 170 -48 280.5t-157 190.5q-35 27 -63.5 42t-61.5 27.5t-72.5 20.5t-111.5 21v-301q106 -4 153.5 -61.5t47.5 -184.5v-750q0 -127 -47.5 -184t-153.5 -62z" />
<glyph unicode="^" horiz-adv-x="1024" d="M25 709h294l193 440l193 -440h294l-301 665h-372z" />
<glyph unicode="_" horiz-adv-x="1024" d="M0 -109v-198h1024v198h-1024z" />
<glyph unicode="`" horiz-adv-x="1024" d="M182 1380l121 187l402 -303l-105 -152z" />
<glyph unicode="a" horiz-adv-x="1284" d="M55 512q0 -121 38 -221.5t106.5 -173t165 -112.5t208.5 -40q246 0 318 146v-111h291v1024h-291v-109q-43 76 -118 111t-191 35q-115 0 -211.5 -40t-168 -113.5t-109.5 -174t-38 -221.5zM362 514q0 109 74 183.5t180 74.5q113 0 185.5 -72.5t72.5 -185.5t-72.5 -187.5 t-183.5 -74.5q-109 0 -182.5 74.5t-73.5 187.5z" />
<glyph unicode="b" horiz-adv-x="1265" d="M102 0h291v111q78 -82 142.5 -114t156.5 -32q113 0 208 41t165 115t107.5 176t37.5 221q0 248 -151 395q-68 70 -162 108t-192 38q-184 0 -295 -117v424h-308v-1366zM397 514q0 109 72.5 182.5t181.5 73.5q106 0 179 -74.5t73 -183.5q0 -111 -73.5 -185.5t-182.5 -74.5 t-179.5 73.5t-70.5 188.5z" />
<glyph unicode="c" horiz-adv-x="1175" d="M55 514q0 -113 42 -213t117 -176t175 -118t213 -42q96 0 184 31t161 87t122 135t72 171h-310q-45 -72 -99 -104.5t-126 -32.5q-106 0 -175 71.5t-69 184.5q0 115 69 189.5t175 74.5q76 0 135.5 -38t85.5 -105h312q-20 94 -68.5 174t-122.5 137t-163 88t-189 31 q-113 0 -211 -42t-173 -117t-116 -174t-41 -212z" />
<glyph unicode="d" horiz-adv-x="1275" d="M55 514q0 -119 37 -219t106.5 -175t164 -115t204.5 -40q104 0 176 33t140 111v-109h288v1366h-307v-428q-61 63 -134 92t-167 29q-109 0 -202 -40t-161.5 -115t-106.5 -174t-38 -216zM362 514q0 113 74 185.5t189 72.5q109 0 183.5 -73.5t74.5 -182.5q0 -113 -75 -188.5 t-187 -75.5q-113 0 -186 73.5t-73 188.5z" />
<glyph unicode="e" horiz-adv-x="1183" d="M55 508q0 -111 41 -210t116 -174t172 -117t208 -42q164 0 296 93.5t204 260.5h-314l-14 -14q-49 -47 -90 -64.5t-99 -17.5q-88 0 -150.5 53.5t-72.5 139.5h768q4 25 5 43t1 39q0 117 -41 220t-114.5 180t-173 119t-211.5 42q-109 0 -206 -43t-170 -119t-114 -176 t-41 -213zM358 621q20 84 81 131t151 47q88 0 152.5 -49.5t78.5 -128.5h-463z" />
<glyph unicode="f" horiz-adv-x="602" d="M16 793h113v-793h307v793h131v231h-131v41q0 96 96 96h35v232h-47q-109 0 -176.5 -17.5t-118.5 -60.5q-96 -80 -96 -238v-53h-113v-231z" />
<glyph unicode="g" horiz-adv-x="1269" d="M55 506q0 -113 38 -211t106.5 -172t159 -116t192.5 -42q98 0 186 42t121 106v-33q0 -66 -11 -109t-38 -75q-33 -45 -85 -70t-114 -25q-139 0 -182 103h-352q23 -164 162 -262.5t346 -98.5q166 0 302 60.5t212 169.5q25 33 37 60.5t20 65.5t10 89t2 135v901h-290v-94 q-100 129 -302 129q-111 0 -206 -41t-165.5 -116t-109.5 -177t-39 -219zM362 518q0 109 72 181.5t178 72.5q109 0 178.5 -74.5t69.5 -189.5q0 -113 -70.5 -184.5t-179.5 -71.5q-106 0 -177 75.5t-71 190.5z" />
<glyph unicode="h" horiz-adv-x="1146" d="M102 0h308v567q0 59 9 93t32 59q20 25 56 39t73 14q164 0 163 -213v-559h308v571q0 158 -20.5 238t-76.5 139q-49 53 -122.5 82t-155.5 29q-190 0 -266 -127v434h-308v-1366z" />
<glyph unicode="i" horiz-adv-x="512" d="M102 0h308v1024h-308v-1024zM102 1135h308v231h-308v-231z" />
<glyph unicode="j" horiz-adv-x="512" d="M-47 -143v-232h76q111 0 183.5 20.5t115.5 65.5t62.5 121t19.5 191v1001h-308v-1012q0 -88 -23.5 -121.5t-84.5 -33.5h-41zM102 1135h308v231h-308v-231z" />
<glyph unicode="k" horiz-adv-x="1046" d="M102 0h308v494l292 -494h349l-377 575l387 449h-363l-288 -371v713h-308v-1366z" />
<glyph unicode="l" horiz-adv-x="512" d="M102 0h308v1366h-308v-1366z" />
<glyph unicode="m" horiz-adv-x="1769" d="M102 0h308v559q0 213 172 213q158 0 157 -213v-559h308v559q0 61 10 98t35 64q23 23 55.5 37t66.5 14q35 0 68 -15.5t49 -39.5q20 -29 27.5 -65t7.5 -107v-545h307v559q0 90 -5 150.5t-16.5 103.5t-34 76t-56.5 67q-104 102 -267 103q-211 0 -323 -182q-96 182 -297 182 q-193 0 -281 -144v109h-291v-1024z" />
<glyph unicode="n" horiz-adv-x="1146" d="M102 0h308v571q0 55 5 80t23 49q23 35 62 53.5t84 18.5q41 0 75.5 -17.5t53.5 -45.5q16 -25 23 -59t7 -91v-559h308v641q0 123 -22.5 191.5t-80.5 123.5q-51 49 -122.5 76t-153.5 27q-96 0 -162 -34t-117 -110v109h-291v-1024z" />
<glyph unicode="o" horiz-adv-x="1218" d="M55 516q0 -119 40 -220t115 -175t175 -115t219 -41q236 0 385 141q82 78 127 184.5t45 221.5q0 190 -114 340q-158 207 -439 207q-109 0 -209 -37t-172 -102q-80 -78 -126 -184.5t-46 -219.5zM362 516q0 106 72 181t174 75t174 -75.5t72 -184.5q0 -113 -69.5 -186.5 t-176.5 -73.5q-106 0 -176 74.5t-70 189.5z" />
<glyph unicode="p" horiz-adv-x="1275" d="M102 -342h308v436q61 -68 134.5 -98.5t172.5 -30.5q104 0 196.5 40t160 114t105.5 173t38 212q0 117 -39 224.5t-109 182.5q-135 147 -354 148q-111 0 -188.5 -36t-135.5 -112v113h-289v-1366zM395 516q0 43 19.5 93t52.5 85q71 78 186 78q109 0 182.5 -74.5t73.5 -185.5 t-73.5 -185.5t-182.5 -74.5q-106 0 -182 77t-76 187z" />
<glyph unicode="q" horiz-adv-x="1275" d="M55 494q0 -113 37 -209.5t104.5 -168t158.5 -111.5t196 -40q102 0 176 33t137 106v-446h307v1366h-288v-113q-59 76 -134 112t-178 36q-111 0 -206 -41t-164.5 -118t-107.5 -181.5t-38 -224.5zM362 514q0 109 73.5 183.5t182.5 74.5t184 -75.5t75 -186.5q0 -106 -75 -182 t-181 -76q-111 0 -185 74.5t-74 187.5z" />
<glyph unicode="r" horiz-adv-x="661" d="M102 0h306v565q0 98 55 141.5t186 45.5v307q-182 0 -256 -144v109h-291v-1024z" />
<glyph unicode="s" horiz-adv-x="911" d="M31 305q8 -80 31.5 -131t74.5 -98q121 -111 301 -111q90 0 168 26.5t136.5 75t90 112t31.5 136.5q0 125 -88 205q-37 37 -89 58.5t-181 58.5q-158 43 -158 111q0 29 26.5 47t69.5 18q82 0 88 -76h302q-6 63 -20.5 104.5t-47.5 80.5q-51 66 -132 101t-179 36 q-84 0 -160 -25.5t-133.5 -73t-89 -107.5t-31.5 -130q0 -98 61.5 -178t157.5 -105q25 -6 113 -30q92 -25 98 -27q86 -33 86 -90q0 -35 -30.5 -57.5t-75.5 -22.5q-102 0 -115 92h-305z" />
<glyph unicode="t" horiz-adv-x="600" d="M-20 793h149v-793h307v793h148v231h-148v342h-307v-342h-149v-231z" />
<glyph unicode="u" horiz-adv-x="1150" d="M96 412q0 -121 19.5 -188.5t72.5 -129.5q111 -129 299 -129q201 0 271 144v-109h291v1024h-308v-571q0 -94 -45 -147.5t-129 -53.5q-86 0 -125 47t-39 154v571h-307v-612z" />
<glyph unicode="v" horiz-adv-x="989" d="M-20 1024l368 -1024h293l369 1024h-318l-198 -639l-197 639h-317z" />
<glyph unicode="w" horiz-adv-x="1542" d="M0 1024l313 -1024h285l172 662l174 -662h285l313 1024h-315l-156 -637l-170 637h-260l-170 -637l-156 637h-315z" />
<glyph unicode="x" horiz-adv-x="1116" d="M-20 0h366l211 317l205 -317h375l-398 549l344 475h-362l-164 -268l-166 268h-366l344 -475z" />
<glyph unicode="y" horiz-adv-x="1015" d="M-20 1024l380 -973l-161 -393h323l514 1366h-325l-199 -594l-207 594h-325z" />
<glyph unicode="z" horiz-adv-x="829" d="M35 0h762v231h-402l402 560v233h-762v-231h432l-432 -584v-209z" />
<glyph unicode="{" horiz-adv-x="632" d="M0 416q57 -18 79.5 -55t22.5 -115v-303q0 -158 71 -223.5t243 -65.5h35l67 4h70v244h-29q-39 0 -71.5 5t-47.5 13q-23 14 -28.5 35.5t-8.5 91.5v193q0 82 -18 127q-4 14 -8 23t-13.5 20.5t-28 31t-61.5 66.5l-4 4q39 23 55.5 36t30.5 30q47 59 47 182v219q0 61 5.5 81.5 t23.5 37.5q29 25 129 24h27v244h-68q-76 4 -82 4h-18q-174 0 -246 -64.5t-72 -222.5v-323q0 -66 -22.5 -99.5t-79.5 -52.5v-192z" />
<glyph unicode="|" horiz-adv-x="1024" d="M344 -342h338v1708h-338v-1708z" />
<glyph unicode="}" horiz-adv-x="632" d="M45 -98v-244h68q76 -4 82 -4h18q174 0 245.5 64.5t71.5 222.5v323q0 66 22.5 99.5t80.5 52.5v192q-57 18 -80 55t-23 115v303q0 158 -70.5 223.5t-242.5 65.5h-35l-67 -4h-70v-244h29q39 0 71.5 -5t47.5 -13q23 -14 28.5 -35.5t7.5 -91.5v-193q0 -80 19 -127q4 -14 8 -23 t14.5 -20.5t27.5 -31t62 -66.5l2 -4q-39 -23 -55 -36t-31 -30q-47 -59 -47 -182v-219q0 -61 -5 -81.5t-23 -37.5q-27 -25 -129 -24h-27z" />
<glyph unicode="~" horiz-adv-x="1366" d="M188 1255l162 -135q35 66 65.5 93.5t69.5 27.5q25 0 57.5 -10t88.5 -33q106 -45 145 -57.5t82 -12.5q113 0 185.5 64.5t136.5 220.5l-162 137q-35 -66 -66.5 -94.5t-72.5 -28.5q-23 0 -47.5 8.5t-102.5 41.5q-92 39 -142 53t-87 14q-100 0 -176 -70.5t-136 -218.5z" />
<glyph unicode="&#xa1;" horiz-adv-x="604" d="M143 -342h318v915h-318v-915zM143 711h318v313h-318v-313z" />
<glyph unicode="&#xa2;" d="M109 688q0 -152 88 -268.5t241 -167.5v-195h252v195q57 8 112.5 40t100.5 80t76 107.5t41 120.5h-326q-51 -63 -125 -63q-66 0 -110.5 45t-44.5 110q0 66 46 111t111 45q88 0 129 -74h320q-6 61 -36 120.5t-76 110t-104.5 86t-123.5 52.5v186h-242v-194 q-150 -47 -239.5 -169t-89.5 -278z" />
<glyph unicode="&#xa3;" d="M16 524h236l45 -59q35 -47 35 -96q0 -51 -40 -74t-130 -23h-90v-272h655q252 0 363 195q41 74 40 153q0 33 -4 58.5t-16 58.5h-295q12 -37 12 -66q0 -127 -151 -127h-78q41 35 57.5 62.5t16.5 62.5q0 31 -13.5 57.5t-48.5 69.5h144v246h-289q-35 41 -49.5 75t-14.5 75 q0 72 46.5 119.5t115.5 47.5q129 0 144 -149h321q-8 86 -23.5 136t-46.5 102q-63 102 -172.5 160.5t-242.5 58.5q-98 0 -187.5 -35t-158 -97.5t-106.5 -145.5t-38 -173q0 -45 11.5 -81t41.5 -93h-90v-246z" />
<glyph unicode="&#xa4;" horiz-adv-x="1214" d="M76 262l110 -110l156 153q117 -84 262 -84q147 0 270 84l150 -149l111 110l-152 152q84 123 84 268q0 141 -82 262l156 156l-113 110l-154 -155q-121 86 -268 86q-143 0 -264 -86l-149 151l-113 -112l149 -150q-43 -61 -63.5 -123.5t-20.5 -138.5t20.5 -139.5 t65.5 -128.5zM365 686q0 102 71.5 178t169.5 76q100 0 172 -76t72 -180q0 -106 -71.5 -182t-174.5 -76q-100 0 -169.5 76t-69.5 184z" />
<glyph unicode="&#xa5;" d="M23 1366l178 -412h-113v-215h205l80 -182h-232v-215h258v-342h334v342h254v215h-227l69 162h211v215h-118l182 432h-342l-195 -549l-196 549h-348z" />
<glyph unicode="&#xa6;" horiz-adv-x="1024" d="M344 313v-655h338v655h-338zM344 639h338v727h-338v-727z" />
<glyph unicode="&#xa7;" d="M57 575q0 -104 53.5 -173.5t176.5 -127.5l293 -135q88 -41 118.5 -68.5t30.5 -68.5q0 -47 -44 -79t-110 -32q-170 0 -194 146h-281q6 -78 25.5 -131t62.5 -105q63 -80 169 -125t225 -45q188 0 308 105.5t120 269.5q0 66 -20.5 123t-67.5 119q82 76 114.5 136t32.5 136 q0 100 -49 167t-164 118l-313 141q-57 27 -80 48.5t-23 54.5q0 41 32 65.5t87 24.5q125 0 152 -101h280q-6 158 -121.5 256.5t-291.5 98.5q-184 0 -298 -94.5t-114 -245.5q0 -109 53 -191q-162 -119 -162 -287zM315 633q0 61 68 94l317 -143q66 -29 91.5 -54.5t25.5 -60.5 q0 -63 -63 -104l-346 159q-49 23 -71 48.5t-22 60.5z" />
<glyph unicode="&#xa8;" horiz-adv-x="1024" d="M160 1176h293v278h-293v-278zM569 1176h293v278h-293v-278z" />
<glyph unicode="&#xa9;" horiz-adv-x="1605" d="M92 690q0 -147 55.5 -278t152.5 -229.5t227 -154t276 -55.5q143 0 272 55.5t227.5 154t153.5 228.5t55 273t-55 272t-153.5 227.5t-227.5 154t-272 55.5q-141 0 -271.5 -54.5t-229.5 -153t-154.5 -226.5t-55.5 -269zM184 688q0 125 48.5 237.5t135.5 198.5t199.5 135.5 t235.5 49.5t236.5 -49.5t198.5 -136.5t133 -200.5t48 -240.5q0 -125 -48 -239.5t-134 -200.5t-197.5 -135.5t-236.5 -49.5q-127 0 -239.5 49.5t-197.5 136.5t-133.5 201.5t-48.5 243.5zM330 690q0 -88 35.5 -166t101 -136t152 -91t182.5 -33q168 0 292 90t162 238h-245 q-72 -137 -211 -137q-100 0 -168 68.5t-68 168.5q0 98 67.5 165t166.5 67q74 0 130 -38t83 -104h245q-12 70 -53 131.5t-103.5 106.5t-139 69.5t-160.5 24.5q-96 0 -182.5 -31.5t-151 -90t-100 -136.5t-35.5 -166z" />
<glyph unicode="&#xaa;" horiz-adv-x="751" d="M47 1094q0 -131 77 -212t202 -81q119 0 163 65v-47h162v547h-162v-47q-41 66 -159 65q-125 0 -204 -81.5t-79 -208.5zM217 1094q0 55 38 93t93 38q57 0 95 -37t38 -94q0 -59 -36.5 -96t-96.5 -37q-55 0 -93 37.5t-38 95.5z" />
<glyph unicode="&#xab;" horiz-adv-x="753" d="M68 412v235l237 242v-273l-94 -84l94 -86v-270zM401 412v235l238 242v-273l-94 -84l94 -86v-270z" />
<glyph unicode="&#xac;" horiz-adv-x="1024" d="M68 307h559v-307h327v600h-886v-293z" />
<glyph unicode="&#xad;" horiz-adv-x="518" d="M0 395h518v260h-518v-260z" />
<glyph unicode="&#xae;" horiz-adv-x="1605" d="M92 690q0 -147 55.5 -278t152.5 -229.5t227 -154t276 -55.5q143 0 272 55.5t227.5 154t153.5 228.5t55 273t-55 272t-153.5 227.5t-227.5 154t-272 55.5q-141 0 -271.5 -54.5t-229.5 -153t-154.5 -226.5t-55.5 -269zM184 688q0 125 48.5 237.5t135.5 198.5t199.5 135.5 t235.5 49.5t236.5 -49.5t198.5 -136.5t133 -200.5t48 -240.5q0 -125 -48 -239.5t-134 -200.5t-197.5 -135.5t-236.5 -49.5q-127 0 -239.5 49.5t-197.5 136.5t-133.5 201.5t-48.5 243.5zM487 287h226v254l200 -254h271l-242 276q96 16 155.5 87t59.5 171q0 68 -28.5 127.5 t-81.5 98.5q-47 35 -104.5 47t-170.5 12h-285v-819zM713 698v217h78q141 0 141 -106q0 -111 -144 -111h-75z" />
<glyph unicode="&#xaf;" horiz-adv-x="1024" d="M184 1214h656v179h-656v-179z" />
<glyph unicode="&#xb0;" horiz-adv-x="784" d="M86 1106q0 -127 89 -216t218 -89q61 0 117.5 23.5t98.5 64.5t65.5 96t23.5 117q0 125 -90 213t-217 88q-61 0 -116.5 -23.5t-98.5 -64.5t-66.5 -95.5t-23.5 -113.5zM242 1104q0 59 44 103t105 44q63 0 107.5 -44t44.5 -105t-44 -105.5t-106 -44.5q-63 0 -107 44t-44 108z " />
<glyph unicode="&#xb1;" d="M86 -68h956v232h-956v-232zM86 567h363v-342h231v342h362v232h-362v362h-231v-362h-363v-232z" />
<glyph unicode="&#xb2;" horiz-adv-x="765" d="M59 1063h226q6 129 96 129q35 0 57.5 -20.5t22.5 -53.5q0 -47 -44 -112.5t-120 -133.5q-23 -20 -42 -35.5t-44 -33t-54.5 -35.5t-88.5 -53v-168h634v182h-292q160 129 223 220t63 192q0 104 -87 172.5t-218 68.5q-88 0 -161.5 -33.5t-116.5 -93.5q-29 -41 -40.5 -81.5 t-13.5 -110.5z" />
<glyph unicode="&#xb3;" horiz-adv-x="761" d="M43 795q4 -47 13.5 -78t27.5 -60q39 -59 117 -94t174 -35q68 0 128 20.5t106 56.5t72 83t26 100q0 70 -41 121.5t-119 75.5q111 59 110 170q0 96 -80.5 161.5t-201.5 65.5q-137 0 -221 -70.5t-88 -191.5h231q4 70 68 70q59 0 59 -68q0 -88 -111 -88h-41v-160h84 q117 0 117 -77q0 -35 -26.5 -56.5t-67.5 -21.5q-80 0 -98 76h-238z" />
<glyph unicode="&#xb4;" horiz-adv-x="1024" d="M319 1264l400 303l123 -187l-418 -268z" />
<glyph unicode="&#xb5;" horiz-adv-x="1024" d="M55 -350h283v448q35 -61 74 -88.5t96 -27.5q119 0 176 147v-129h283v983h-283v-502q0 -127 -44 -194.5t-128 -67.5q-90 0 -141 82q-20 31 -26.5 65.5t-6.5 108.5v508h-283v-1333z" />
<glyph unicode="&#xb6;" d="M41 1004q0 -156 96 -252.5t250 -96.5h25v-845h184v1378h162v-1378h184v1378h117v178h-570q-86 0 -159.5 -13.5t-118.5 -37.5q-82 -43 -126 -124t-44 -187z" />
<glyph unicode="&#xb7;" horiz-adv-x="536" d="M109 369h317v313h-317v-313z" />
<glyph unicode="&#xb8;" horiz-adv-x="1024" d="M311 -279q10 -80 61.5 -125t133.5 -45q90 0 147.5 54.5t57.5 142.5q0 61 -44 106.5t-106 45.5q-18 0 -49 -6l53 106h-123l-77 -160l90 -65q14 14 26.5 20t28.5 6q27 0 45 -18.5t18 -44.5q0 -31 -19 -50.5t-50 -19.5q-27 0 -40 11.5t-24 41.5h-129z" />
<glyph unicode="&#xb9;" horiz-adv-x="765" d="M152 1184h145v-637h235v819h-380v-182z" />
<glyph unicode="&#xba;" horiz-adv-x="751" d="M78 1096q0 -127 83 -210t212 -83t214 82t85 209t-85 208.5t-212 81.5t-212 -82.5t-85 -205.5zM248 1096q0 53 37 91t90 38t89 -38t36 -93q0 -57 -36 -94t-89 -37q-55 0 -91 37.5t-36 95.5z" />
<glyph unicode="&#xbb;" horiz-adv-x="722" d="M82 176v273l94 83l-94 86v271l237 -242v-237zM416 176v273l94 83l-94 86v271l237 -242v-237z" />
<glyph unicode="&#xbc;" horiz-adv-x="1845" d="M152 1184h145v-637h235v819h-380v-182zM541 0h188l574 1366h-189zM1104 143h391v-143h225v143h99v170h-99v506h-217l-399 -518v-158zM1335 305l183 258v-258h-183z" />
<glyph unicode="&#xbd;" horiz-adv-x="1843" d="M152 1184h145v-637h235v819h-380v-182zM541 0h188l574 1366h-189zM1137 516h225q6 129 96 129q35 0 57.5 -20.5t22.5 -53.5q0 -47 -44 -112.5t-120 -132.5q-23 -20 -42 -36t-43.5 -33t-54.5 -35.5t-89 -53.5v-168h635v182h-293q160 129 223.5 220.5t63.5 191.5 q0 104 -87.5 173t-218.5 69q-88 0 -161.5 -34t-116.5 -93q-27 -39 -38 -80t-15 -113z" />
<glyph unicode="&#xbe;" horiz-adv-x="1841" d="M43 795q4 -47 13.5 -78t27.5 -60q39 -59 117 -94t174 -35q68 0 128 20.5t106 56.5t72 83t26 100q0 70 -41 121.5t-119 75.5q111 59 110 170q0 96 -80.5 161.5t-201.5 65.5q-137 0 -221 -70.5t-88 -191.5h231q4 70 68 70q59 0 59 -68q0 -88 -111 -88h-41v-160h84 q117 0 117 -77q0 -35 -26.5 -56.5t-67.5 -21.5q-80 0 -98 76h-238zM539 0h186l575 1366h-188zM1102 143h389v-143h225v143h99v170h-99v506h-217l-397 -518v-158zM1333 305l180 258v-258h-180z" />
<glyph unicode="&#xbf;" horiz-adv-x="1015" d="M61 23q0 -82 34 -153t94.5 -125t141.5 -84t173 -30q104 0 193 34t155 96.5t101.5 146.5t35.5 182q0 20 -2 35h-338q-2 -96 -30.5 -137t-96.5 -41q-106 0 -106 114q0 45 27.5 91.5t97.5 113.5q102 96 145 170t43 154h-317q-2 -45 -32 -87t-110 -118q-121 -111 -165 -187.5 t-44 -174.5zM412 711h317v313h-317v-313z" />
<glyph unicode="&#xc0;" horiz-adv-x="1351" d="M-6 0h375l71 199h475l68 -199h377l-543 1366h-276zM317 1675l504 -221l92 188l-491 267zM537 475l143 467l143 -467h-286z" />
<glyph unicode="&#xc1;" horiz-adv-x="1351" d="M-6 0h375l71 199h475l68 -199h377l-543 1366h-276zM446 1642l93 -188l503 221l-104 234zM537 475l143 467l143 -467h-286z" />
<glyph unicode="&#xc2;" horiz-adv-x="1351" d="M-6 0h375l71 199h475l68 -199h377l-543 1366h-276zM260 1501h326l92 131l92 -131h324l-260 307h-304zM537 475l143 467l143 -467h-286z" />
<glyph unicode="&#xc3;" horiz-adv-x="1351" d="M-6 0h375l71 199h475l68 -199h377l-543 1366h-276zM311 1706l101 -182q43 35 72.5 49t62.5 14q29 0 51 -8q88 -25 149.5 -38t88.5 -13q113 0 221 82l-96 184q-59 -35 -94.5 -47t-67.5 -12q-29 0 -51 8q-111 33 -148 41t-82 8q-55 0 -103 -20.5t-104 -65.5zM537 475 l143 467l143 -467h-286z" />
<glyph unicode="&#xc4;" horiz-adv-x="1351" d="M-6 0h375l71 199h475l68 -199h377l-543 1366h-276zM295 1501h321v307h-321v-307zM537 475l143 467l143 -467h-286zM737 1501h322v307h-322v-307z" />
<glyph unicode="&#xc5;" horiz-adv-x="1351" d="M-6 0h375l71 199h475l68 -199h377l-543 1366h-276zM440 1696q0 -98 69 -167t169 -69q96 0 165.5 68.5t69.5 167.5q0 94 -69.5 163.5t-163.5 69.5q-100 0 -170 -67.5t-70 -165.5zM537 475l143 467l143 -467h-286zM592 1696q0 37 25.5 62.5t60.5 25.5t59.5 -26.5 t24.5 -63.5q0 -35 -24.5 -61.5t-59.5 -26.5q-37 0 -61.5 25.5t-24.5 64.5z" />
<glyph unicode="&#xc6;" horiz-adv-x="1757" d="M-55 0h424l147 227h397v-227h758v307h-424v234h412v307h-412v211h424v307h-776zM657 498l256 372v-372h-256z" />
<glyph unicode="&#xc7;" horiz-adv-x="1507" d="M59 684q0 -133 45.5 -253t129 -215t197.5 -156.5t245 -79.5l-74 -146l107 -61q27 29 57 28q29 0 49.5 -19.5t20.5 -47.5q0 -29 -19.5 -48.5t-48.5 -19.5t-44 11.5t-28 39.5h-145q18 -186 207 -186q96 0 160.5 61.5t64.5 153.5q0 70 -45 116t-115 46q-20 0 -37 -4l35 69 q113 4 220.5 46t195.5 115t147.5 169t83.5 207h-364q-111 -231 -330 -231q-76 0 -143.5 30.5t-117.5 87t-77.5 131t-27.5 158.5t27.5 156.5t76.5 127t116.5 85t143.5 30.5q113 0 202 -64.5t130 -174.5h364q-25 141 -131 278q-100 131 -245.5 200t-317.5 69 q-147 0 -278 -54.5t-229.5 -151.5t-153 -226.5t-54.5 -276.5z" />
<glyph unicode="&#xc8;" horiz-adv-x="960" d="M117 0h760v307h-426v234h411v307h-411v211h426v307h-760v-1366zM117 1675l504 -221l92 188l-492 267z" />
<glyph unicode="&#xc9;" horiz-adv-x="960" d="M117 0h760v307h-426v234h411v307h-411v211h426v307h-760v-1366zM281 1642l92 -188l504 221l-105 234z" />
<glyph unicode="&#xca;" horiz-adv-x="960" d="M78 1501h325l93 131l92 -131h323l-260 307h-303zM115 0h759v307h-425v234h411v307h-411v211h425v307h-759v-1366z" />
<glyph unicode="&#xcb;" horiz-adv-x="960" d="M113 1501h321v307h-321v-307zM115 0h759v307h-425v234h411v307h-411v211h425v307h-759v-1366zM555 1501h322v307h-322v-307z" />
<glyph unicode="&#xcc;" horiz-adv-x="579" d="M-41 1663l471 -209l90 188l-457 246zM117 0h348v1366h-348v-1366z" />
<glyph unicode="&#xcd;" horiz-adv-x="579" d="M61 1642l93 -188l469 209l-105 225zM117 0h348v1366h-348v-1366z" />
<glyph unicode="&#xce;" horiz-adv-x="579" d="M-106 1501h313l84 144l86 -144h309l-240 307h-303zM117 0h348v1366h-348v-1366z" />
<glyph unicode="&#xcf;" horiz-adv-x="579" d="M-37 1501h281v307h-281v-307zM117 0h348v1366h-348v-1366zM338 1501h280v307h-280v-307z" />
<glyph unicode="&#xd0;" horiz-adv-x="1355" d="M0 588h117v-588h536q145 0 264 49t204 140.5t131 219.5t46 281q0 291 -174 481q-100 106 -224 150.5t-325 44.5h-458v-532h-117v-246zM465 307v281h252v246h-252v225h151q160 0 247 -99.5t87 -281.5q0 -102 -33.5 -186t-93.5 -127q-35 -27 -90 -42.5t-119 -15.5h-149z " />
<glyph unicode="&#xd1;" horiz-adv-x="1384" d="M117 0h334l-13 831l529 -831h303v1366h-334l12 -860l-530 860h-301v-1366zM319 1706l101 -182q43 35 72.5 49t62.5 14q29 0 51 -8q88 -25 149.5 -38t88.5 -13q113 0 221 82l-96 184q-59 -35 -94 -47t-68 -12q-29 0 -51 8q-111 33 -148 41t-82 8q-55 0 -103 -20.5 t-104 -65.5z" />
<glyph unicode="&#xd2;" horiz-adv-x="1558" d="M59 692q0 -152 54.5 -284t151.5 -229t230.5 -151.5t284.5 -54.5q150 0 282 54.5t230.5 151.5t153.5 227.5t55 277.5t-55 276.5t-153.5 226.5t-231.5 151.5t-283 54.5q-147 0 -279 -53.5t-230.5 -149.5t-154 -225t-55.5 -273zM408 690q0 82 28.5 155t78.5 127t118.5 83.5 t146.5 29.5t146.5 -30.5t120 -86t79 -130t27.5 -158.5q0 -82 -27.5 -154.5t-79 -128t-118 -86t-142.5 -30.5q-80 0 -149.5 30.5t-121.5 86t-79.5 130t-27.5 162.5zM414 1675l504 -221l92 188l-492 267z" />
<glyph unicode="&#xd3;" horiz-adv-x="1558" d="M59 692q0 -152 54.5 -284t151.5 -229t230.5 -151.5t284.5 -54.5q150 0 282 54.5t230.5 151.5t153.5 227.5t55 277.5t-55 276.5t-153.5 226.5t-231.5 151.5t-283 54.5q-147 0 -279 -53.5t-230.5 -149.5t-154 -225t-55.5 -273zM408 690q0 82 28.5 155t78.5 127t118.5 83.5 t146.5 29.5t146.5 -30.5t120 -86t79 -130t27.5 -158.5q0 -82 -27.5 -154.5t-79 -128t-118 -86t-142.5 -30.5q-80 0 -149.5 30.5t-121.5 86t-79.5 130t-27.5 162.5zM565 1642l92 -188l504 221l-104 234z" />
<glyph unicode="&#xd4;" horiz-adv-x="1558" d="M59 692q0 -152 54.5 -284t151.5 -229t230.5 -151.5t284.5 -54.5q150 0 282 54.5t230.5 151.5t153.5 227.5t55 277.5t-55 276.5t-153.5 226.5t-231.5 151.5t-283 54.5q-147 0 -279 -53.5t-230.5 -149.5t-154 -225t-55.5 -273zM362 1501h326l92 131l92 -131h324l-260 307 h-303zM408 690q0 82 28.5 155t78.5 127t118.5 83.5t146.5 29.5t146.5 -30.5t120 -86t79 -130t27.5 -158.5q0 -82 -27.5 -154.5t-79 -128t-118 -86t-142.5 -30.5q-80 0 -149.5 30.5t-121.5 86t-79.5 130t-27.5 162.5z" />
<glyph unicode="&#xd5;" horiz-adv-x="1558" d="M59 692q0 -152 54.5 -284t151.5 -229t230.5 -151.5t284.5 -54.5q150 0 282 54.5t230.5 151.5t153.5 227.5t55 277.5t-55 276.5t-153.5 226.5t-231.5 151.5t-283 54.5q-147 0 -279 -53.5t-230.5 -149.5t-154 -225t-55.5 -273zM408 690q0 82 28.5 155t78.5 127t118.5 83.5 t146.5 29.5t146.5 -30.5t120 -86t79 -130t27.5 -158.5q0 -82 -27.5 -154.5t-79 -128t-118 -86t-142.5 -30.5q-80 0 -149.5 30.5t-121.5 86t-79.5 130t-27.5 162.5zM420 1706l100 -182q43 35 73 49t62 14q29 0 52 -8q88 -25 149.5 -38t87.5 -13q113 0 221 82l-96 184 q-59 -35 -94 -47t-68 -12q-29 0 -51 8q-111 33 -147.5 41t-81.5 8q-55 0 -103.5 -20.5t-103.5 -65.5z" />
<glyph unicode="&#xd6;" horiz-adv-x="1558" d="M59 692q0 -152 54.5 -284t151.5 -229t230.5 -151.5t284.5 -54.5q150 0 282 54.5t230.5 151.5t153.5 227.5t55 277.5t-55 276.5t-153.5 226.5t-231.5 151.5t-283 54.5q-147 0 -279 -53.5t-230.5 -149.5t-154 -225t-55.5 -273zM397 1501h322v307h-322v-307zM408 690 q0 82 28.5 155t78.5 127t118.5 83.5t146.5 29.5t146.5 -30.5t120 -86t79 -130t27.5 -158.5q0 -82 -27.5 -154.5t-79 -128t-118 -86t-142.5 -30.5q-80 0 -149.5 30.5t-121.5 86t-79.5 130t-27.5 162.5zM840 1501h321v307h-321v-307z" />
<glyph unicode="&#xd7;" d="M121 401l282 281l-282 283l160 159l282 -280l283 280l160 -159l-283 -283l283 -281l-160 -161l-283 282l-282 -282z" />
<glyph unicode="&#xd8;" horiz-adv-x="1558" d="M59 684q0 -154 53.5 -282t153.5 -212l-119 -161l193 -146l115 156q66 -39 127 -53.5t161 -14.5q350 0 560 219q96 100 147 226.5t51 265.5q0 141 -48 261t-150 237l116 155l-196 154l-119 -158q-86 33 -154.5 47.5t-156.5 14.5q-156 0 -290 -53.5t-234.5 -149.5 t-155 -226t-54.5 -280zM403 678q0 74 29 151.5t78 137.5q100 119 278 118q41 0 68 -5t57 -19l-442 -604q-68 106 -68 221zM655 303l441 596q57 -106 57 -219q0 -152 -94 -270q-104 -131 -285 -131q-66 0 -119 24z" />
<glyph unicode="&#xd9;" horiz-adv-x="1253" d="M102 539q0 -160 31 -251t107 -169q150 -145 389 -146q240 0 387 148q74 78 104.5 172t30.5 246v827h-348v-827q0 -88 -9.5 -131t-33.5 -74q-47 -53 -131 -53q-94 0 -136 61t-42 197v827h-349v-827zM248 1675l504 -221l92 188l-492 267z" />
<glyph unicode="&#xda;" horiz-adv-x="1253" d="M102 539q0 -160 31 -251t107 -169q150 -145 389 -146q240 0 387 148q74 78 104.5 172t30.5 246v827h-348v-827q0 -88 -9.5 -131t-33.5 -74q-47 -53 -131 -53q-94 0 -136 61t-42 197v827h-349v-827zM412 1642l92 -188l504 221l-105 234z" />
<glyph unicode="&#xdb;" horiz-adv-x="1253" d="M102 539q0 -160 31 -251t107 -169q150 -145 389 -146q240 0 387 148q74 78 104.5 172t30.5 246v827h-348v-827q0 -88 -9.5 -131t-33.5 -74q-47 -53 -131 -53q-94 0 -136 61t-42 197v827h-349v-827zM209 1501h326l92 131l92 -131h323l-260 307h-303z" />
<glyph unicode="&#xdc;" horiz-adv-x="1253" d="M102 539q0 -160 31 -251t107 -169q150 -145 389 -146q240 0 387 148q74 78 104.5 172t30.5 246v827h-348v-827q0 -88 -9.5 -131t-33.5 -74q-47 -53 -131 -53q-94 0 -136 61t-42 197v827h-349v-827zM244 1501h321v307h-321v-307zM686 1501h322v307h-322v-307z" />
<glyph unicode="&#xdd;" horiz-adv-x="1120" d="M-20 1366l407 -868v-498h348v498l406 868h-375l-205 -549l-203 549h-378zM358 1642l93 -188l503 221l-104 234z" />
<glyph unicode="&#xde;" horiz-adv-x="1183" d="M117 0h334v252h149q145 0 238.5 27.5t160.5 91.5q68 63 106 156.5t38 197.5q0 109 -42 205t-118 157q-70 55 -163 78t-257 23h-112v178h-334v-1366zM451 559v322h127q113 0 157 -33q27 -18 43.5 -53t16.5 -74q0 -72 -54 -119q-27 -27 -57.5 -35t-91.5 -8h-141z" />
<glyph unicode="&#xdf;" horiz-adv-x="1263" d="M96 0h307v119q82 -86 154 -120t174 -34q98 0 185.5 35t153 98.5t102 146.5t36.5 175q0 127 -80.5 227.5t-205.5 128.5q70 47 100.5 103.5t30.5 136.5q0 78 -34 148.5t-93.5 123.5t-139 83t-168.5 30q-113 0 -222 -48t-181 -132q-70 -78 -94.5 -168t-24.5 -265v-788z M403 385v489q0 102 29 154q23 41 65 63.5t87 22.5q72 0 116.5 -43t44.5 -108q0 -63 -41.5 -102.5t-113.5 -39.5h-62v-231h166q96 0 151.5 -46t55.5 -126q0 -70 -48 -118t-120 -48q-121 0 -160 133h-170z" />
<glyph unicode="&#xe0;" horiz-adv-x="1284" d="M55 512q0 -121 38 -221.5t106.5 -173t165 -112.5t208.5 -40q246 0 318 146v-111h291v1024h-291v-109q-43 76 -118 111t-191 35q-115 0 -211.5 -40t-168 -113.5t-109.5 -174t-38 -221.5zM309 1380l418 -268l104 152l-401 303zM362 514q0 109 74 183.5t180 74.5 q113 0 185.5 -72.5t72.5 -185.5t-72.5 -187.5t-183.5 -74.5q-109 0 -182.5 74.5t-73.5 187.5z" />
<glyph unicode="&#xe1;" horiz-adv-x="1284" d="M55 512q0 -121 38 -221.5t106.5 -173t165 -112.5t208.5 -40q246 0 318 146v-111h291v1024h-291v-109q-43 76 -118 111t-191 35q-115 0 -211.5 -40t-168 -113.5t-109.5 -174t-38 -221.5zM362 514q0 109 74 183.5t180 74.5q113 0 185.5 -72.5t72.5 -185.5t-72.5 -187.5 t-183.5 -74.5q-109 0 -182.5 74.5t-73.5 187.5zM479 1264l105 -152l417 268l-122 187z" />
<glyph unicode="&#xe2;" horiz-adv-x="1284" d="M55 512q0 -121 38 -221.5t106.5 -173t165 -112.5t208.5 -40q246 0 318 146v-111h291v1024h-291v-109q-43 76 -118 111t-191 35q-115 0 -211.5 -40t-168 -113.5t-109.5 -174t-38 -221.5zM289 1174h293l82 118l86 -118h288l-264 307h-213zM362 514q0 109 74 183.5t180 74.5 q113 0 185.5 -72.5t72.5 -185.5t-72.5 -187.5t-183.5 -74.5q-109 0 -182.5 74.5t-73.5 187.5z" />
<glyph unicode="&#xe3;" horiz-adv-x="1284" d="M55 512q0 -121 38 -221.5t106.5 -173t165 -112.5t208.5 -40q246 0 318 146v-111h291v1024h-291v-109q-43 76 -118 111t-191 35q-115 0 -211.5 -40t-168 -113.5t-109.5 -174t-38 -221.5zM317 1331l95 -157q33 35 60.5 48t64.5 13q57 0 125 -27q57 -20 76.5 -25t45.5 -5 q63 0 115.5 22.5t104.5 71.5l-82 158q-57 -39 -83 -50.5t-48 -11.5q-31 0 -68 10q-98 31 -135 39t-72 8q-100 0 -199 -94zM362 514q0 109 74 183.5t180 74.5q113 0 185.5 -72.5t72.5 -185.5t-72.5 -187.5t-183.5 -74.5q-109 0 -182.5 74.5t-73.5 187.5z" />
<glyph unicode="&#xe4;" horiz-adv-x="1284" d="M55 512q0 -121 38 -221.5t106.5 -173t165 -112.5t208.5 -40q246 0 318 146v-111h291v1024h-291v-109q-43 76 -118 111t-191 35q-115 0 -211.5 -40t-168 -113.5t-109.5 -174t-38 -221.5zM315 1176h293v278h-293v-278zM362 514q0 109 74 183.5t180 74.5q113 0 185.5 -72.5 t72.5 -185.5t-72.5 -187.5t-183.5 -74.5q-109 0 -182.5 74.5t-73.5 187.5zM725 1176h293v278h-293v-278z" />
<glyph unicode="&#xe5;" horiz-adv-x="1284" d="M55 512q0 -121 38 -221.5t106.5 -173t165 -112.5t208.5 -40q246 0 318 146v-111h291v1024h-291v-109q-43 76 -118 111t-191 35q-115 0 -211.5 -40t-168 -113.5t-109.5 -174t-38 -221.5zM362 514q0 109 74 183.5t180 74.5q113 0 185.5 -72.5t72.5 -185.5t-72.5 -187.5 t-183.5 -74.5q-109 0 -182.5 74.5t-73.5 187.5zM436 1356q0 -96 67.5 -163t164.5 -67q94 0 161.5 68t67.5 162q0 92 -66.5 159.5t-160.5 67.5q-96 0 -165 -66.5t-69 -160.5zM580 1356q0 37 25.5 63.5t62.5 26.5q35 0 60.5 -26.5t25.5 -65.5q0 -37 -26 -63.5t-60 -26.5 q-37 0 -62.5 26.5t-25.5 65.5z" />
<glyph unicode="&#xe6;" horiz-adv-x="2004" d="M55 512q0 -123 44 -231.5t122 -186.5q133 -129 350 -129q240 0 301 146v-111h279v111q47 -76 113.5 -111t162.5 -35q160 0 286 92.5t200 266.5h-307q-51 -55 -95.5 -77t-103.5 -22q-96 0 -159.5 51.5t-76.5 139.5h771q4 23 6 38t2 35q0 119 -40 223.5t-110.5 182.5 t-167 121t-205.5 43q-94 0 -161.5 -35t-114.5 -109v109h-279v-109q-45 78 -112.5 111t-179.5 33q-115 0 -211.5 -40t-167 -112.5t-108.5 -174t-38 -220.5zM362 514q0 109 72 183.5t178 74.5q117 0 188.5 -72.5t71.5 -189.5q0 -111 -71.5 -184.5t-177.5 -73.5 q-111 0 -186 74.5t-75 187.5zM1178 621q16 80 81.5 129t155.5 49q180 0 232 -178h-469z" />
<glyph unicode="&#xe7;" horiz-adv-x="1175" d="M55 514q0 -131 56.5 -245.5t158.5 -192.5q51 -39 102.5 -61.5t135.5 -41.5l-64 -133l91 -65q27 27 55 26q27 0 45 -18.5t18 -44.5q0 -29 -20.5 -49.5t-48.5 -20.5q-27 0 -40.5 11.5t-23.5 41.5h-129q10 -80 61.5 -125t133.5 -45q90 0 147.5 54.5t57.5 142.5 q0 61 -44.5 106.5t-105.5 45.5q-18 0 -49 -6l37 73q188 8 327.5 124t184.5 298h-310q-45 -72 -99 -104.5t-126 -32.5q-106 0 -175 71.5t-69 184.5q0 115 69 189.5t175 74.5q76 0 135.5 -38t85.5 -105h312q-20 94 -68.5 174t-122.5 137t-163 88t-189 31q-113 0 -211 -42 t-173 -117t-116 -174t-41 -212z" />
<glyph unicode="&#xe8;" horiz-adv-x="1183" d="M55 508q0 -111 41 -210t116 -174t172 -117t208 -42q164 0 296 93.5t204 260.5h-314l-14 -14q-49 -47 -90 -64.5t-99 -17.5q-88 0 -150.5 53.5t-72.5 139.5h768q4 25 5 43t1 39q0 117 -41 220t-114.5 180t-173 119t-211.5 42q-109 0 -206 -43t-170 -119t-114 -176 t-41 -213zM262 1380l418 -268l104 152l-401 303zM358 621q20 84 81 131t151 47q88 0 152.5 -49.5t78.5 -128.5h-463z" />
<glyph unicode="&#xe9;" horiz-adv-x="1183" d="M55 508q0 -111 41 -210t116 -174t172 -117t208 -42q164 0 296 93.5t204 260.5h-314l-14 -14q-49 -47 -90 -64.5t-99 -17.5q-88 0 -150.5 53.5t-72.5 139.5h768q4 25 5 43t1 39q0 117 -41 220t-114.5 180t-173 119t-211.5 42q-109 0 -206 -43t-170 -119t-114 -176 t-41 -213zM358 621q20 84 81 131t151 47q88 0 152.5 -49.5t78.5 -128.5h-463zM399 1264l105 -152l418 268l-123 187z" />
<glyph unicode="&#xea;" horiz-adv-x="1183" d="M55 508q0 -111 41 -210t116 -174t172 -117t208 -42q164 0 296 93.5t204 260.5h-314l-14 -14q-49 -47 -90 -64.5t-99 -17.5q-88 0 -150.5 53.5t-72.5 139.5h768q4 25 5 43t1 39q0 117 -41 220t-114.5 180t-173 119t-211.5 42q-109 0 -206 -43t-170 -119t-114 -176 t-41 -213zM229 1174h293l82 118l86 -118h289l-264 307h-213zM358 621q20 84 81 131t151 47q88 0 152.5 -49.5t78.5 -128.5h-463z" />
<glyph unicode="&#xeb;" horiz-adv-x="1183" d="M55 508q0 -111 41 -210t116 -174t172 -117t208 -42q164 0 296 93.5t204 260.5h-314l-14 -14q-49 -47 -90 -64.5t-99 -17.5q-88 0 -150.5 53.5t-72.5 139.5h768q4 25 5 43t1 39q0 117 -41 220t-114.5 180t-173 119t-211.5 42q-109 0 -206 -43t-170 -119t-114 -176 t-41 -213zM254 1176h293v278h-293v-278zM358 621q20 84 81 131t151 47q88 0 152.5 -49.5t78.5 -128.5h-463zM664 1176h292v278h-292v-278z" />
<glyph unicode="&#xec;" horiz-adv-x="512" d="M-45 1360l389 -248l105 152l-373 282zM102 0h308v1024h-308v-1024z" />
<glyph unicode="&#xed;" horiz-adv-x="512" d="M63 1264l105 -152l389 256l-121 178zM102 0h308v1024h-308v-1024z" />
<glyph unicode="&#xee;" horiz-adv-x="512" d="M-98 1174h278l76 131l80 -131h274l-243 307h-213zM102 0h308v1024h-308v-1024z" />
<glyph unicode="&#xef;" horiz-adv-x="512" d="M-45 1176h252v278h-252v-278zM102 0h308v1024h-308v-1024zM303 1176h252v278h-252v-278z" />
<glyph unicode="&#xf0;" horiz-adv-x="1218" d="M55 508q0 -117 41 -216t116 -172t177.5 -113t222.5 -40q117 0 218.5 40t176 113t115.5 171t41 213q0 145 -66.5 313t-213.5 400l139 43l-76 120l-145 -45q-27 37 -41.5 54.5t-42.5 50.5l-195 -54q25 -31 39 -51t41 -65l2 -2l-129 -41l62 -121l129 41q16 -27 24 -41 t27 -57q10 -20 26 -62q-57 25 -92 33t-86 8q-111 0 -204 -38t-161.5 -108.5t-106.5 -165.5t-38 -208zM362 516q0 113 68 181.5t174 68.5q109 0 179.5 -74t70.5 -188q0 -109 -69.5 -180.5t-176.5 -71.5q-109 0 -177.5 72.5t-68.5 191.5z" />
<glyph unicode="&#xf1;" horiz-adv-x="1146" d="M102 0h308v571q0 55 5 80t23 49q23 35 62 53.5t84 18.5q41 0 75.5 -17.5t53.5 -45.5q16 -25 23 -59t7 -91v-559h308v641q0 123 -22.5 191.5t-80.5 123.5q-51 49 -122.5 76t-153.5 27q-96 0 -162 -34t-117 -110v109h-291v-1024zM227 1331l95 -157q33 35 60.5 48t63.5 13 q57 0 125 -27q57 -20 77 -25t46 -5q63 0 115.5 22.5t103.5 71.5l-82 158q-57 -39 -82.5 -50.5t-48.5 -11.5q-31 0 -67 10q-98 31 -135 39t-72 8q-100 0 -199 -94z" />
<glyph unicode="&#xf2;" horiz-adv-x="1218" d="M55 516q0 -119 40 -220t115 -175t175 -115t219 -41q236 0 385 141q82 78 127 184.5t45 221.5q0 190 -114 340q-158 207 -439 207q-109 0 -209 -37t-172 -102q-80 -78 -126 -184.5t-46 -219.5zM279 1380l417 -268l105 152l-402 303zM362 516q0 106 72 181t174 75 t174 -75.5t72 -184.5q0 -113 -69.5 -186.5t-176.5 -73.5q-106 0 -176 74.5t-70 189.5z" />
<glyph unicode="&#xf3;" horiz-adv-x="1218" d="M55 516q0 -119 40 -220t115 -175t175 -115t219 -41q236 0 385 141q82 78 127 184.5t45 221.5q0 190 -114 340q-158 207 -439 207q-109 0 -209 -37t-172 -102q-80 -78 -126 -184.5t-46 -219.5zM362 516q0 106 72 181t174 75t174 -75.5t72 -184.5q0 -113 -69.5 -186.5 t-176.5 -73.5q-106 0 -176 74.5t-70 189.5zM430 1264l105 -152l417 268l-123 187z" />
<glyph unicode="&#xf4;" horiz-adv-x="1218" d="M55 516q0 -119 40 -220t115 -175t175 -115t219 -41q236 0 385 141q82 78 127 184.5t45 221.5q0 190 -114 340q-158 207 -439 207q-109 0 -209 -37t-172 -102q-80 -78 -126 -184.5t-46 -219.5zM233 1174h293l82 118l86 -118h289l-264 307h-213zM362 516q0 106 72 181 t174 75t174 -75.5t72 -184.5q0 -113 -69.5 -186.5t-176.5 -73.5q-106 0 -176 74.5t-70 189.5z" />
<glyph unicode="&#xf5;" horiz-adv-x="1218" d="M55 516q0 -119 40 -220t115 -175t175 -115t219 -41q236 0 385 141q82 78 127 184.5t45 221.5q0 190 -114 340q-158 207 -439 207q-109 0 -209 -37t-172 -102q-80 -78 -126 -184.5t-46 -219.5zM279 1331l94 -157q33 35 60.5 48t64.5 13q57 0 125 -27q57 -20 76.5 -25 t45.5 -5q63 0 115.5 22.5t104.5 71.5l-82 158q-57 -39 -83 -50.5t-48 -11.5q-31 0 -68 10q-98 31 -135 39t-72 8q-100 0 -198 -94zM362 516q0 106 72 181t174 75t174 -75.5t72 -184.5q0 -113 -69.5 -186.5t-176.5 -73.5q-106 0 -176 74.5t-70 189.5z" />
<glyph unicode="&#xf6;" horiz-adv-x="1218" d="M55 516q0 -119 40 -220t115 -175t175 -115t219 -41q236 0 385 141q82 78 127 184.5t45 221.5q0 190 -114 340q-158 207 -439 207q-109 0 -209 -37t-172 -102q-80 -78 -126 -184.5t-46 -219.5zM256 1176h293v278h-293v-278zM362 516q0 106 72 181t174 75t174 -75.5 t72 -184.5q0 -113 -69.5 -186.5t-176.5 -73.5q-106 0 -176 74.5t-70 189.5zM666 1176h292v278h-292v-278z" />
<glyph unicode="&#xf7;" d="M86 567h956v232h-956v-232zM436 215h256v244h-256v-244zM436 907h256v244h-256v-244z" />
<glyph unicode="&#xf8;" horiz-adv-x="1218" d="M55 510q0 -231 152 -387l-96 -127l133 -96l96 120q100 -33 161.5 -44t127.5 -11q109 0 207 42t170.5 117t113.5 175t41 213q0 115 -35.5 203t-128.5 198l97 134l-133 102l-103 -137q-86 27 -144.5 37t-121.5 10q-111 0 -209 -42t-172 -117t-115 -175t-41 -215zM362 512 q0 111 72 185.5t178 74.5q23 0 39.5 -4t44.5 -16l-284 -394q-29 47 -39.5 78t-10.5 76zM514 274l291 388q29 -47 39 -76t10 -72q0 -113 -69.5 -187.5t-178.5 -74.5q-23 0 -41 4t-51 18z" />
<glyph unicode="&#xf9;" horiz-adv-x="1150" d="M96 412q0 -121 19.5 -188.5t72.5 -129.5q111 -129 299 -129q201 0 271 144v-109h291v1024h-308v-571q0 -94 -45 -147.5t-129 -53.5q-86 0 -125 47t-39 154v571h-307v-612zM248 1380l418 -268l104 152l-401 303z" />
<glyph unicode="&#xfa;" horiz-adv-x="1150" d="M96 412q0 -121 19.5 -188.5t72.5 -129.5q111 -129 299 -129q201 0 271 144v-109h291v1024h-308v-571q0 -94 -45 -147.5t-129 -53.5q-86 0 -125 47t-39 154v571h-307v-612zM383 1264l104 -152l418 268l-123 187z" />
<glyph unicode="&#xfb;" horiz-adv-x="1150" d="M96 412q0 -121 19.5 -188.5t72.5 -129.5q111 -129 299 -129q201 0 271 144v-109h291v1024h-308v-571q0 -94 -45 -147.5t-129 -53.5q-86 0 -125 47t-39 154v571h-307v-612zM201 1174h293l81 118l87 -118h288l-264 307h-213z" />
<glyph unicode="&#xfc;" horiz-adv-x="1150" d="M96 412q0 -121 19.5 -188.5t72.5 -129.5q111 -129 299 -129q201 0 271 144v-109h291v1024h-308v-571q0 -94 -45 -147.5t-129 -53.5q-86 0 -125 47t-39 154v571h-307v-612zM221 1176h293v278h-293v-278zM631 1176h293v278h-293v-278z" />
<glyph unicode="&#xfd;" horiz-adv-x="1015" d="M-20 1024l380 -973l-161 -393h323l514 1366h-325l-199 -594l-207 594h-325zM330 1264l104 -152l418 268l-123 187z" />
<glyph unicode="&#xfe;" horiz-adv-x="1271" d="M102 -342h308v436q61 -68 134.5 -98.5t172.5 -30.5q104 0 196.5 40t160 114t105.5 173t38 212q0 121 -37 223t-103.5 177t-160 115t-201.5 40q-96 0 -165 -27.5t-140 -95.5v430h-308v-1708zM393 516q0 109 74.5 182.5t183.5 73.5t183.5 -74.5t74.5 -185.5 q0 -109 -74.5 -184.5t-183.5 -75.5q-111 0 -184.5 75.5t-73.5 188.5z" />
<glyph unicode="&#xff;" horiz-adv-x="1015" d="M-20 1024l380 -973l-161 -393h323l514 1366h-325l-199 -594l-207 594h-325zM156 1176h293v278h-293v-278zM565 1176h293v278h-293v-278z" />
<glyph unicode="&#x152;" horiz-adv-x="1988" d="M59 680q0 -145 54.5 -274.5t153 -226.5t227.5 -151.5t274 -54.5q113 0 204 28t173 87v-88h760v307h-424v234h411v307h-411v211h424v307h-760v-88q-88 63 -171 89t-198 26q-150 0 -282 -53.5t-229 -151.5t-151.5 -228.5t-54.5 -279.5zM408 686q0 84 27.5 158t77.5 128 t117.5 83.5t145.5 29.5q160 0 263.5 -111.5t103.5 -285.5q0 -176 -104.5 -291.5t-264.5 -115.5q-174 0 -276 135q-90 121 -90 270z" />
<glyph unicode="&#x153;" horiz-adv-x="1978" d="M55 510q0 -117 40 -217t114 -174t173 -114t216 -40q131 0 227.5 44t171.5 141q74 -96 165 -140.5t218 -44.5q166 0 303.5 95.5t202.5 258.5h-313q-47 -53 -91 -73.5t-108 -20.5q-94 0 -156.5 52.5t-72.5 138.5h768q6 27 8 44t2 42q0 115 -41 217t-115.5 179t-173 119 t-211.5 42q-115 0 -222 -49t-163 -127q-133 176 -393 176q-119 0 -220 -40t-175 -114t-114 -175t-40 -220zM362 514q0 106 73 182t175 76q100 0 173 -77t73 -183t-71.5 -183t-172.5 -77q-104 0 -177 77t-73 185zM1153 621q16 80 79.5 129t151.5 49t150.5 -48.5t81.5 -129.5 h-463z" />
<glyph unicode="&#x178;" horiz-adv-x="1120" d="M-20 1366l407 -868v-498h348v498l406 868h-375l-205 -549l-203 549h-378zM178 1501h322v307h-322v-307zM621 1501h321v307h-321v-307z" />
<glyph unicode="&#x2c6;" horiz-adv-x="1024" d="M137 1174l273 307h213l264 -307h-289l-86 118l-82 -118h-293z" />
<glyph unicode="&#x2dc;" horiz-adv-x="1024" d="M170 1331l94 -157q33 35 60.5 48t64.5 13q57 0 125 -27q57 -20 76.5 -25t46.5 -5q63 0 115.5 22.5t103.5 71.5l-82 158q-57 -39 -82.5 -50.5t-48.5 -11.5q-31 0 -68 10q-98 31 -135 39t-71 8q-100 0 -199 -94z" />
<glyph unicode="&#x2000;" horiz-adv-x="964" />
<glyph unicode="&#x2001;" horiz-adv-x="1929" />
<glyph unicode="&#x2002;" horiz-adv-x="964" />
<glyph unicode="&#x2003;" horiz-adv-x="1929" />
<glyph unicode="&#x2004;" horiz-adv-x="643" />
<glyph unicode="&#x2005;" horiz-adv-x="482" />
<glyph unicode="&#x2006;" horiz-adv-x="321" />
<glyph unicode="&#x2007;" horiz-adv-x="321" />
<glyph unicode="&#x2008;" horiz-adv-x="241" />
<glyph unicode="&#x2009;" horiz-adv-x="385" />
<glyph unicode="&#x200a;" horiz-adv-x="107" />
<glyph unicode="&#x2010;" horiz-adv-x="518" d="M0 395h518v260h-518v-260z" />
<glyph unicode="&#x2011;" horiz-adv-x="518" d="M0 395h518v260h-518v-260z" />
<glyph unicode="&#x2012;" horiz-adv-x="518" d="M0 395h518v260h-518v-260z" />
<glyph unicode="&#x2013;" d="M88 395h948v260h-948v-260z" />
<glyph unicode="&#x2014;" horiz-adv-x="1570" d="M0 395h1571v260h-1571v-260z" />
<glyph unicode="&#x2018;" horiz-adv-x="536" d="M109 756h317v313h-141v64q0 31 21.5 50t55.5 19h64v164h-129q-84 0 -136 -61.5t-52 -161.5v-387z" />
<glyph unicode="&#x2019;" horiz-adv-x="536" d="M109 756h131q84 0 136 61.5t52 161.5v387h-319v-313h143v-64q0 -31 -22.5 -50t-57.5 -19h-63v-164z" />
<glyph unicode="&#x201a;" horiz-adv-x="536" d="M109 0h143v-63q0 -31 -22.5 -50.5t-57.5 -19.5h-63v-164h131q84 0 136 61.5t52 161.5v387h-319v-313z" />
<glyph unicode="&#x201c;" horiz-adv-x="993" d="M109 756h317v313h-141v64q0 31 21.5 50t55.5 19h64v164h-129q-84 0 -136 -61.5t-52 -161.5v-387zM565 756h318v313h-142v64q0 31 21.5 50t56.5 19h64v164h-129q-84 0 -136.5 -61.5t-52.5 -161.5v-387z" />
<glyph unicode="&#x201d;" horiz-adv-x="993" d="M109 756h131q84 0 136 61.5t52 161.5v387h-319v-313h143v-64q0 -31 -22.5 -50t-57.5 -19h-63v-164zM565 756h129q84 0 136.5 61.5t52.5 161.5v387h-318v-313h142v-64q0 -31 -21.5 -50t-56.5 -19h-64v-164z" />
<glyph unicode="&#x201e;" horiz-adv-x="993" d="M109 0h143v-63q0 -31 -22.5 -50.5t-57.5 -19.5h-63v-164h131q84 0 136 61.5t52 161.5v387h-319v-313zM565 0h142v-63q0 -31 -21.5 -50.5t-56.5 -19.5h-64v-164h129q84 0 136.5 61.5t52.5 161.5v387h-318v-313z" />
<glyph unicode="&#x2022;" horiz-adv-x="1366" d="M401 692q0 119 84 203q82 82 205 82q55 0 106.5 -22.5t90.5 -61.5q82 -82 82 -199q0 -119 -84 -202q-82 -82 -199 -82q-119 0 -201 82q-84 84 -84 200z" />
<glyph unicode="&#x2026;" horiz-adv-x="1609" d="M109 0h317v313h-317v-313zM645 0h318v313h-318v-313zM1182 0h317v313h-317v-313z" />
<glyph unicode="&#x202f;" horiz-adv-x="385" />
<glyph unicode="&#x2039;" horiz-adv-x="387" d="M68 412v235l237 256v-287l-94 -84l94 -86v-270z" />
<glyph unicode="&#x203a;" horiz-adv-x="387" d="M82 176v273l94 83l-94 86v271l237 -242v-237z" />
<glyph unicode="&#x205f;" horiz-adv-x="482" />
<glyph unicode="&#x2122;" horiz-adv-x="1673" d="M20 1180h170v-592h234v592h170v186h-574v-186zM643 588h215l-6 536l174 -536h156l174 536l-8 -536h217v778h-295l-166 -489l-166 489h-295v-778z" />
<glyph unicode="&#x25fc;" horiz-adv-x="1024" d="M0 0v1024h1024v-1024h-1024z" />
</font>
</defs>
</svg>
